<svg xmlns="http://www.w3.org/2000/svg" viewBox="0 0 64 64" role="img" aria-label="octapod">
  <g transform="rotate(0 32 32)"><path d="M38 32 Q49 27 55 34" fill="none" stroke="#a78bfa" stroke-width="2.2" stroke-linecap="round"/><circle cx="55" cy="34" r="2.8" fill="#a78bfa"/></g>
  <g transform="rotate(45 32 32)"><path d="M38 32 Q49 27 55 34" fill="none" stroke="#a78bfa" stroke-width="2.2" stroke-linecap="round"/><circle cx="55" cy="34" r="2.8" fill="#a78bfa"/></g>
  <g transform="rotate(90 32 32)"><path d="M38 32 Q49 27 55 34" fill="none" stroke="#a78bfa" stroke-width="2.2" stroke-linecap="round"/><circle cx="55" cy="34" r="2.8" fill="#a78bfa"/></g>
  <g transform="rotate(135 32 32)"><path d="M38 32 Q49 27 55 34" fill="none" stroke="#a78bfa" stroke-width="2.2" stroke-linecap="round"/><circle cx="55" cy="34" r="2.8" fill="#a78bfa"/></g>
  <g transform="rotate(180 32 32)"><path d="M38 32 Q49 27 55 34" fill="none" stroke="#a78bfa" stroke-width="2.2" stroke-linecap="round"/><circle cx="55" cy="34" r="2.8" fill="#a78bfa"/></g>
  <g transform="rotate(225 32 32)"><path d="M38 32 Q49 27 55 34" fill="none" stroke="#a78bfa" stroke-width="2.2" stroke-linecap="round"/><circle cx="55" cy="34" r="2.8" fill="#a78bfa"/></g>
  <g transform="rotate(270 32 32)"><path d="M38 32 Q49 27 55 34" fill="none" stroke="#a78bfa" stroke-width="2.2" stroke-linecap="round"/><circle cx="55" cy="34" r="2.8" fill="#a78bfa"/></g>
  <g transform="rotate(315 32 32)"><path d="M38 32 Q49 27 55 34" fill="none" stroke="#a78bfa" stroke-width="2.2" stroke-linecap="round"/><circle cx="55" cy="34" r="2.8" fill="#a78bfa"/></g>
  <circle cx="32" cy="32" r="6" fill="#22d3ee"/>
</svg>
